<mxfile host="app.diagrams.net" modified="2023-08-04T13:05:51.063Z" agent="Mozilla/5.0 (Macintosh; Intel Mac OS X 10.15; rv:109.0) Gecko/20100101 Firefox/115.0" etag="5ubq1uIhbYh_0cR5aJJn" version="21.6.6" type="github">
  <diagram name="Page-1" id="_88K3ItoqBgVeZuTj-He">
    <mxGraphModel dx="829" dy="513" grid="1" gridSize="10" guides="1" tooltips="1" connect="1" arrows="1" fold="1" page="1" pageScale="1" pageWidth="850" pageHeight="1100" math="0" shadow="0">
      <root>
        <mxCell id="0" />
        <mxCell id="1" parent="0" />
      </root>
    </mxGraphModel>
  </diagram>
</mxfile>
